<?xml version="1.0" standalone="no"?><!DOCTYPE svg PUBLIC "-//W3C//DTD SVG 1.1//EN" "http://www.w3.org/Graphics/SVG/1.1/DTD/svg11.dtd"><svg t="1613208140146" class="icon" viewBox="0 0 1024 1024" version="1.1" xmlns="http://www.w3.org/2000/svg" p-id="4461" xmlns:xlink="http://www.w3.org/1999/xlink" width="200" height="200"><defs><style type="text/css"></style></defs><path d="M312.533333 318.72h78.506667v-40.32l-78.506667 40.32zM18.133333 744.106667h106.88v-179.413334l34.346667-8.106666v-44.16l-34.346667 10.026666v-157.44h34.346667v-36.266666H125.013333v-58.453334l-82.56 12.16v46.293334H0v36.266666h42.453333v177.493334L0 552.533333v44.373334l42.453333-11.946667v108.8L18.133333 744.106667z" fill="#1C83B9" p-id="4462"></path><path d="M519.893333 744.106667v-36.266667h-126.72v-122.88h68.48v-36.266667h-68.48v-72.533333h68.48v-36.266667h-68.48v-74.666666H469.333333v-36.266667h-199.253333l14.08-50.346667H205.653333L143.146667 498.133333h36.266666v245.973334zM251.946667 391.253333l8.106666-26.24h54.4v74.666667h-52.266666v36.266667h52.48v72.533333h-52.48v36.266667h52.48v122.88h-62.72zM937.386667 302.72v-34.346667l-78.72 12.16v22.186667h-139.093334v-34.346667l-78.72 12.16v22.186667h-86.613333v36.266667h86.613333v32.213333h78.72v-32.213333h139.093334v32.213333h78.72v-32.213333H1024v-36.266667h-86.613333zM723.626667 381.226667h-88.746667l-8.106667 18.133333h-98.133333v34.346667h82.133333l-56.533333 126.933333h38.4v181.546667h82.56V488.106667l24.106667-54.4H1024v-34.346667H715.52l8.106667-18.133333z" fill="#1C83B9" p-id="4463"></path><path d="M1001.813333 464H713.6v34.133333h173.226667l-42.24 58.453334h-153.173334v36.266666h143.146667v106.88l-18.133333 42.453334h100.693333v-149.333334H1024v-36.266666h-90.666667l68.48-92.586667zM512 960a448 448 0 0 1-351.146667-170.666667H81.706667A512 512 0 0 0 512 1024a512 512 0 0 0 430.293333-234.666667h-79.146666A448 448 0 0 1 512 960zM512 64a446.506667 446.506667 0 0 1 333.013333 149.333333h82.773334A512 512 0 0 0 512 0 512 512 0 0 0 96.213333 213.333333h82.773334A446.506667 446.506667 0 0 1 512 64z" fill="#1C83B9" p-id="4464"></path></svg>