<?xml version="1.0" standalone="no"?><!DOCTYPE svg PUBLIC "-//W3C//DTD SVG 1.1//EN" "http://www.w3.org/Graphics/SVG/1.1/DTD/svg11.dtd"><svg t="1613208857225" class="icon" viewBox="0 0 1024 1024" version="1.1" xmlns="http://www.w3.org/2000/svg" p-id="7152" xmlns:xlink="http://www.w3.org/1999/xlink" width="200" height="200"><defs><style type="text/css"></style></defs><path d="M512 512m-512 0a512 512 0 1 0 1024 0 512 512 0 1 0-1024 0Z" fill="#F0F5FF" opacity=".8" p-id="7153"></path><path d="M358.4 512m-51.2 0a51.2 51.2 0 1 0 102.4 0 51.2 51.2 0 1 0-102.4 0Z" fill="#3956EE" p-id="7154"></path><path d="M537.6 512m-51.2 0a51.2 51.2 0 1 0 102.4 0 51.2 51.2 0 1 0-102.4 0Z" fill="#3956EE" p-id="7155"></path><path d="M742.4 512m-51.2 0a51.2 51.2 0 1 0 102.4 0 51.2 51.2 0 1 0-102.4 0Z" fill="#FFBA69" p-id="7156"></path><path d="M512 204.8c84.3264 0 163.2768 34.176 220.7488 93.568a25.6 25.6 0 1 1-36.7872 35.6096A255.1296 255.1296 0 0 0 512 256c-141.3888 0-256 114.6112-256 256s114.6112 256 256 256a255.0528 255.0528 0 0 0 179.968-73.9328 25.6 25.6 0 1 1 35.9936 36.4032A306.2528 306.2528 0 0 1 512 819.2c-169.6512 0-307.2-137.5488-307.2-307.2S342.3488 204.8 512 204.8z" fill="#484C63" p-id="7157"></path></svg>